<?xml version="1.0" encoding="UTF-8"?>
<svg version="1.1" xmlns="http://www.w3.org/2000/svg" width="279" height="234">
<path d="M0 0 C15.56076232 9.23524918 26.55073958 33.28782737 32.3125 49.75 C34.03362194 53.06475337 35.25215435 54.13999752 38.125 56.375 C41.29388418 58.95662308 42.56767504 60.53083187 43.0625 64.625 C43.17771383 67.17813846 42.98820069 69.04198208 42.29296875 71.515625 C41.73134497 74.0401412 41.73134497 74.0401412 43.265625 76.0078125 C43.92046875 76.70648438 44.5753125 77.40515625 45.25 78.125 C54.5755251 89.08945745 61.54940379 102.34574365 66 116 C66.33 116.99 66.66 117.98 67 119 C67.14220279 120.66267874 67.22020567 122.3315173 67.25 124 C67.27578125 124.86625 67.3015625 125.7325 67.328125 126.625 C67 129 67 129 65.68359375 130.7734375 C64 132 64 132 60.8125 132.625 C54.10821817 131.52593741 50.10760108 126.59148184 46 121.4375 C37.09171164 108.78724769 31.41091601 95.28911379 26.953125 80.53515625 C25.69564905 77.19047636 24.07759284 76.68534846 21 75 C17.19927952 71.19927952 16.3731214 68.31698002 16 63 C16.06316406 62.01515625 16.12632813 61.0303125 16.19140625 60.015625 C15.96094383 56.38466608 15.27407532 55.6496709 12.6875 53.1875 C2.22828714 42.15340133 -10.35256512 24.08545112 -11.1875 8.5 C-11.01442278 5.26922518 -10.81195303 3.61726549 -9 1 C-5.73952371 -0.63023814 -3.62198965 -0.4673535 0 0 Z M-2 10 C1.42430733 25.48072271 11.76328798 40.11751008 23 51 C21.10623174 44.63592715 18.64400574 38.96027702 15.375 33.1875 C14.93986084 32.41212891 14.50472168 31.63675781 14.05639648 30.83789062 C7.50045197 19.12554106 7.50045197 19.12554106 -2 10 Z M27 62 C26.34 63.32 25.68 64.64 25 66 C26.72855926 68.14567913 26.72855926 68.14567913 29 70 C31.21858253 69.86358623 31.21858253 69.86358623 33 69 C33.69159401 67.15274948 33.69159401 67.15274948 34 65 C33.34 64.01 32.68 63.02 32 62 C29.41619823 61.74969023 29.41619823 61.74969023 27 62 Z M37 82 C37.54326856 87.97595411 39.99509737 92.85618568 42.5625 98.1875 C43.00706543 99.11844482 43.45163086 100.04938965 43.90966797 101.00854492 C47.29331534 107.92623742 51.03726702 114.08076262 56 120 C57.10482389 117.24128824 57.00119366 116.00399687 56.13671875 113.109375 C53.16298436 106.21608234 49.84255056 99.75537917 45.875 93.375 C45.45565186 92.70049805 45.03630371 92.02599609 44.60424805 91.33105469 C42.36058828 87.82586212 40.10527317 84.81907288 37 82 Z " fill="#383838" transform="translate(100,39)"/>
<path d="M0 0 C4.10257815 3.48627157 5.94347513 7.51397476 8.125 12.3125 C8.47175781 13.04662109 8.81851563 13.78074219 9.17578125 14.53710938 C11.22469069 18.9607127 12.78974787 23.27752131 14 28 C13.34 28 12.68 28 12 28 C11 27 10 26 9 25 C8.29875 24.731875 7.5975 24.46375 6.875 24.1875 C5 23 5 23 4.25 19.875 C4.1675 18.92625 4.085 17.9775 4 17 C6.475 18.98 6.475 18.98 9 21 C6.74751537 14.97240147 4.23736359 9.35217955 0.953125 3.8125 C0 2 0 2 0 0 Z " fill="#C1C1C1" transform="translate(112,66)"/>
<path d="M0 0 C4.08885308 2.95027578 6.59777607 6.01687116 9.3125 10.25 C10.00988281 11.32765625 10.70726562 12.4053125 11.42578125 13.515625 C11.94527344 14.33546875 12.46476563 15.1553125 13 16 C12.67 16.66 12.34 17.32 12 18 C9.36 14.37 6.72 10.74 4 7 C4.66 9.97 5.32 12.94 6 16 C2.50157465 12.96803136 1.08017942 10.50074757 0 6 C-0.125 2.625 -0.125 2.625 0 0 Z " fill="#CECECE" transform="translate(134,116)"/>
<path d="M0 0 C3.26954202 0.56371414 4.82575883 1.49962266 7 4 C6.67 4.66 6.34 5.32 6 6 C5.01 5.34 4.02 4.68 3 4 C3.99 7.3 4.98 10.6 6 14 C5.34 14 4.68 14 4 14 C4 13.34 4 12.68 4 12 C3.34 12 2.68 12 2 12 C0.70756464 7.8803623 -0.26252625 4.33168317 0 0 Z " fill="#989898" transform="translate(96,47)"/>
<path d="M0 0 C3.25524265 3.02272532 5.61820737 6.25718301 8 10 C7.67 10.66 7.34 11.32 7 12 C4.5 9.6875 4.5 9.6875 2 7 C2 6.01 2 5.02 2 4 C1.34 4 0.68 4 0 4 C0 2.68 0 1.36 0 0 Z " fill="#969696" transform="translate(108,71)"/>
<path d="M0 0 C2.74792483 3.40219265 6 7.48464588 6 12 C4 12 4 12 2.4375 10.5 C0.42584433 7.0014684 0.33420906 4.01050867 0 0 Z " fill="#9B9B9B" transform="translate(140,132)"/>
<path d="M0 0 C0.33 0.99 0.66 1.98 1 3 C1.66 3 2.32 3 3 3 C3.53229326 4.26607607 4.05044544 5.53810412 4.5625 6.8125 C4.85253906 7.52019531 5.14257812 8.22789063 5.44140625 8.95703125 C6 11 6 11 5 14 C1.34133706 9.67612562 0 5.65076098 0 0 Z " fill="#909090" transform="translate(134,118)"/>
<path d="M0 0 C3.08089673 2.77280706 4.68775452 5.06326356 6 9 C3.525 8.01 3.525 8.01 1 7 C0.67 4.69 0.34 2.38 0 0 Z " fill="#8E8E8E" transform="translate(148,148)"/>
<path d="M0 0 C2.5 1.8125 2.5 1.8125 5 4 C5 4.99 5 5.98 5 7 C3.68 6.67 2.36 6.34 1 6 C0.67 4.02 0.34 2.04 0 0 Z " fill="#727272" transform="translate(116,83)"/>
</svg>
